# xmcd
# 
# Track frame offsets:
#     150
#     23052
#     45812
#     69165
#     87625
#     106960
#     127795
#     147900
#     166137
#     191692
#     208065
# 
# Disc length: 3025
# 
# Revision: 1
# Processed by: cddbd v1.5.2PL0 Copyright (c) Steve Scherf et al.
# Submitted via: fre:ac v1.1beta1
# 
DISCID=8a0bcf0b
DTITLE=Mitsuko - Blue Canary (Mitsuko With J-Yorkers)
DYEAR=2003
DGENRE=J-Jazz
TTITLE0=Autumn Leaves (枯葉)
TTITLE1=Hotel California
TTITLE2=A Day In The Life Of A Fool - From Black Orpheus (黒いオルフェ)
TTITLE3=The Girl From Ipanema (イパネマの娘)
TTITLE4=Never Let Me Go
TTITLE5=My Foolish Heart
TTITLE6=Blue Canary
TTITLE7=Bluesette
TTITLE8=Ave Maria
TTITLE9=When I Fall In Love
TTITLE10=I've Got You Under My Skin
EXTD=YEAR: 2003
EXTT0=
EXTT1=
EXTT2=
EXTT3=
EXTT4=
EXTT5=
EXTT6=
EXTT7=
EXTT8=
EXTT9=
EXTT10=
PLAYORDER=
